HIERARCHY
ROOT Hips
{
 OFFSET 0.000000 0.000000 0.000000
 CHANNELS 6 Xposition Yposition Zposition Yrotation Xrotation Zrotation
 JOINT Chest
 {
  OFFSET 0.000000 9.585900 0.002600
  CHANNELS 3 Yrotation Xrotation Zrotation
  JOINT Chest2
  {
   OFFSET 0.000000 9.601200 -0.005300
   CHANNELS 3 Yrotation Xrotation Zrotation
   JOINT Chest3
   {
    OFFSET 0.000000 9.561800 0.000000
    CHANNELS 3 Yrotation Xrotation Zrotation
    JOINT Chest4
    {
     OFFSET 0.000000 9.552100 0.000000
     CHANNELS 3 Yrotation Xrotation Zrotation
     JOINT Neck
     {
      OFFSET 0.000000 14.453000 0.000000
      CHANNELS 3 Yrotation Xrotation Zrotation
      JOINT Head
      {
       OFFSET 0.000000 8.936500 -0.011300
       CHANNELS 3 Yrotation Xrotation Zrotation
       End Site
       {
        OFFSET 0.000000 17.073600 -0.006000
       }
      }
     }
     JOINT RightCollar
     {
      OFFSET -2.921100 9.558500 0.000000
      CHANNELS 3 Yrotation Xrotation Zrotation
      JOINT RightShoulder
      {
       OFFSET -13.519700 0.000000 0.000000
       CHANNELS 3 Yrotation Xrotation Zrotation
       JOINT RightElbow
       {
        OFFSET 0.000000 -29.696600 0.000000
        CHANNELS 3 Yrotation Xrotation Zrotation
        JOINT RightWrist
        {
         OFFSET 0.000000 -24.004700 0.000000
         CHANNELS 3 Yrotation Xrotation Zrotation
         End Site
         {
          OFFSET 0.000000 -17.728500 0.000000
         }
        }
       }
      }
     }
     JOINT LeftCollar
     {
      OFFSET 2.921100 9.558500 0.000000
      CHANNELS 3 Yrotation Xrotation Zrotation
      JOINT LeftShoulder
      {
       OFFSET 13.519700 0.000000 0.000000
       CHANNELS 3 Yrotation Xrotation Zrotation
       JOINT LeftElbow
       {
        OFFSET 0.000000 -29.696600 0.000000
        CHANNELS 3 Yrotation Xrotation Zrotation
        JOINT LeftWrist
        {
         OFFSET 0.000000 -24.004700 0.000000
         CHANNELS 3 Yrotation Xrotation Zrotation
         End Site
         {
          OFFSET 0.000000 -17.728500 0.000000
         }
        }
       }
      }
     }
    }
   }
  }
 }
 JOINT RightHip
 {
  OFFSET -7.771700 -0.012900 -0.001300
  CHANNELS 3 Yrotation Xrotation Zrotation
  JOINT RightKnee
  {
   OFFSET 0.000000 -40.869800 0.001200
   CHANNELS 3 Yrotation Xrotation Zrotation
   JOINT RightAnkle
   {
    OFFSET 0.000000 -39.717900 0.002100
    CHANNELS 3 Yrotation Xrotation Zrotation
    JOINT RightToe
    {
     OFFSET 0.000000 -4.965400 11.033500
     CHANNELS 3 Yrotation Xrotation Zrotation
     End Site
     {
      OFFSET 0.000000 -1.423100 5.872300
     }
    }
   }
  }
 }
 JOINT LeftHip
 {
  OFFSET 7.771700 -0.012900 -0.001300
  CHANNELS 3 Yrotation Xrotation Zrotation
  JOINT LeftKnee
  {
   OFFSET 0.000000 -40.869800 0.001200
   CHANNELS 3 Yrotation Xrotation Zrotation
   JOINT LeftAnkle
   {
    OFFSET 0.000000 -39.717900 0.002100
    CHANNELS 3 Yrotation Xrotation Zrotation
    JOINT LeftToe
    {
     OFFSET 0.000000 -4.965400 11.033500
     CHANNELS 3 Yrotation Xrotation Zrotation
     End Site
     {
      OFFSET 0.000000 -1.423100 5.872300
     }
    }
   }
  }
 }
}
MOTION
Frames: 14
Frame Time: 0.008333
0.000000 85.388000 0.000000 0.000000 -5.767877 0.000000 0.000000 11.653817 0.000000 0.000000 -5.885947 0.000000 0.000000 -0.000000 0.000000 0.000000 -0.000000 0.000000 0.000000 12.528835 0.000000 0.000000 0.711642 0.000000 0.000000 -0.000000 0.000000 0.000000 0.000000 -90.000000 0.000000 -2.309062 0.000000 0.000000 2.309062 0.000000 0.000000 -0.000000 0.000000 0.000000 -0.000000 90.000000 0.000000 -2.309062 0.000000 0.000000 2.309062 0.000000 0.000000 8.520406 0.000000 0.000000 1.905762 0.000000 -0.000000 -4.658285 0.000000 0.000000 -0.000000 0.000000 0.000000 8.520406 0.000000 0.000000 1.905762 0.000000 -0.000000 -4.658285 0.000000 0.000000 -0.000000 0.000000
-205.457352 58.034259 27.456665 172.888288 -50.461387 -3.586505 5.273646 21.956537 3.178180 2.757932 12.628096 1.565531 3.526880 15.758420 2.064066 2.756093 12.609583 1.570115 -1.185271 16.856285 2.919633 -3.197036 -4.377962 5.810860 2.166114 2.771737 -0.095156 3.404015 -11.390058 -9.661530 -58.795243 -60.386813 103.459402 1.987973 8.125150 -28.545453 -10.023558 -0.371186 -0.331829 0.107086 -10.202839 15.738190 37.222188 -29.950397 -101.100150 14.917178 -3.770725 16.254973 4.436513 -21.766458 -0.001552 -37.541914 72.913890 -39.403694 5.340522 -12.429571 9.996248 0.039503 -0.135884 0.025980 -4.412702 -20.480143 11.036369 54.752009 78.879560 53.989623 5.044938 -15.554229 -17.282429 0.013255 0.098852 0.001002
-205.459229 58.032894 27.452859 172.895501 -50.428135 -3.597749 5.281720 21.951117 3.172866 2.755971 12.610576 1.569697 3.539169 15.749738 2.052892 2.756889 12.604618 1.573429 -1.120793 16.779328 2.985813 -3.111204 -4.512582 5.928366 2.171915 2.756757 -0.081716 3.415150 -11.335130 -9.642241 -58.760817 -60.403656 103.403981 1.992278 8.127677 -28.543926 -10.018855 -0.411092 -0.321651 0.043545 -10.172191 15.755808 37.213919 -29.905762 -101.067630 14.910801 -3.791914 16.256725 4.440825 -21.798226 -0.005084 -37.565176 72.914277 -39.418213 5.346761 -12.432769 10.001888 0.031979 -0.137357 0.021254 -4.409541 -20.518057 11.032795 54.742165 78.898245 54.006004 5.052653 -15.562170 -17.290348 0.026227 0.096025 0.003755
-205.461400 58.031743 27.447884 172.904891 -50.394825 -3.610674 5.290835 21.939769 3.168017 2.761132 12.600639 1.567606 3.545347 15.728925 2.055363 2.749362 12.607515 1.587438 -1.056324 16.700828 3.034190 -3.032200 -4.632767 6.036526 2.213665 2.719532 -0.106092 3.443311 -11.231496 -9.609063 -58.839578 -60.442548 103.413891 1.995085 8.112113 -28.541522 -9.978283 -0.488511 -0.332485 -0.028732 -10.119603 15.781474 37.186756 -29.856839 -101.037001 14.956252 -3.795854 16.258615 4.442739 -21.829863 -0.007569 -37.590404 72.919001 -39.435328 5.357697 -12.441452 10.002341 0.033384 -0.137009 0.019830 -4.406871 -20.556352 11.029764 54.755417 78.906193 54.040545 5.059344 -15.563561 -17.291814 0.027441 0.093079 0.002466
-205.464878 58.030536 27.441882 172.916300 -50.361644 -3.618557 5.303632 21.933941 3.157582 2.758253 12.577011 1.571723 3.551007 15.712579 2.058019 2.754410 12.599403 1.579677 -1.000452 16.639141 3.103191 -2.956843 -4.742371 6.134077 2.261374 2.693385 -0.107532 3.456483 -11.148021 -9.592493 -58.923068 -60.464155 103.430515 1.992399 8.105756 -28.540700 -9.972394 -0.494424 -0.316031 -0.080413 -10.122496 15.800842 37.151716 -29.814071 -101.011219 14.968329 -3.811403 16.263630 4.444367 -21.861172 -0.015254 -37.618918 72.925965 -39.457403 5.353985 -12.451645 10.005152 0.036806 -0.136433 0.019999 -4.401536 -20.594440 11.018703 54.775339 78.907678 54.079476 5.063426 -15.563793 -17.293398 0.024791 0.091985 0.003946
-205.469377 58.029819 27.434605 172.934583 -50.334385 -3.626174 5.299078 21.918923 3.147432 2.760674 12.567478 1.569384 3.554323 15.700865 2.062607 2.759941 12.587104 1.573190 -0.961534 16.601433 3.153914 -2.868120 -4.859365 6.227190 2.265672 2.703309 -0.089909 3.485221 -11.124933 -9.606997 -58.968034 -60.470229 103.445588 2.025711 8.130225 -28.457524 -9.979818 -0.480198 -0.302929 -0.107642 -10.147731 15.818462 37.116673 -29.799998 -100.987324 14.960140 -3.848910 16.253387 4.449867 -21.885839 -0.032495 -37.657486 72.939797 -39.485175 5.350581 -12.468245 10.009465 0.032353 -0.136367 0.018897 -4.405285 -20.624099 11.006460 54.789105 78.910828 54.104110 5.058747 -15.564885 -17.290960 0.032482 0.089356 0.004677
-205.471922 58.028553 27.427707 172.940977 -50.306077 -3.637714 5.304528 21.898019 3.152811 2.767239 12.559856 1.567667 3.546419 15.696427 2.068547 2.775491 12.567763 1.566376 -0.913564 16.556120 3.209642 -2.795047 -4.952698 6.302091 2.258943 2.719187 -0.069311 3.489989 -11.115932 -9.619176 -58.997515 -60.476892 103.480112 2.045359 8.131080 -28.422583 -9.958829 -0.479806 -0.295454 -0.168659 -10.189110 15.860049 37.102977 -29.841406 -100.973323 15.035836 -3.883572 16.230846 4.448534 -21.912775 -0.035568 -37.658444 72.944401 -39.479184 5.355040 -12.468543 10.008244 0.040499 -0.137087 0.017725 -4.406296 -20.655158 11.008016 54.807433 78.922523 54.134538 5.068140 -15.568137 -17.289571 0.028937 0.087059 0.003085
-205.474329 58.028597 27.419392 172.946588 -50.292076 -3.649432 5.305743 21.886120 3.160023 2.788494 12.562426 1.571507 3.536813 15.681167 2.069132 2.776955 12.558865 1.567853 -0.847901 16.499845 3.269290 -2.736514 -5.022745 6.360008 2.248885 2.738366 -0.051841 3.535698 -11.120093 -9.661330 -59.059458 -60.456522 103.509135 2.080185 8.125725 -28.372897 -9.900571 -0.502645 -0.302009 -0.250145 -10.192715 15.896388 37.106439 -29.849719 -100.969578 15.052995 -3.895005 16.203340 4.446232 -21.926745 -0.035753 -37.664360 72.955784 -39.484506 5.373664 -12.470793 10.009063 0.030721 -0.145323 0.016251 -4.395248 -20.673010 11.005941 54.829418 78.935740 54.181268 5.073250 -15.575175 -17.295708 0.029909 0.081974 0.004843
-205.477822 58.028175 27.411055 172.950713 -50.279107 -3.654272 5.315335 21.882190 3.165229 2.785860 12.559349 1.576528 3.540730 15.668900 2.068851 2.778051 12.551772 1.570573 -0.831432 16.486435 3.291416 -2.632837 -5.120310 6.429461 2.232757 2.757528 -0.042637 3.568400 -11.140597 -9.709039 -59.104962 -60.421669 103.542346 2.121693 8.116238 -28.321897 -9.885083 -0.505156 -0.310770 -0.281921 -10.195915 15.912708 37.110178 -29.859382 -100.969680 15.036518 -3.908681 16.173649 4.444006 -21.939336 -0.037252 -37.680640 72.963779 -39.505687 5.381396 -12.476814 10.014399 0.022348 -0.148006 0.014175 -4.380176 -20.690548 10.998224 54.866853 78.948280 54.240659 5.066432 -15.587706 -17.293033 0.035496 0.077999 0.002780
-205.484276 58.025499 27.403975 172.987651 -50.252013 -3.667983 5.293265 21.868450 3.152570 2.781278 12.557560 1.582020 3.545937 15.666182 2.076253 2.772918 12.543925 1.566146 -0.811992 16.466065 3.306911 -2.527848 -5.206281 6.491035 2.222773 2.763017 -0.046191 3.536605 -11.213699 -9.776898 -59.097495 -60.339421 103.597462 2.149907 8.124850 -28.288255 -9.879633 -0.510465 -0.321061 -0.296986 -10.207630 15.924119 37.150146 -29.900393 -100.985384 15.053678 -3.902155 16.146344 4.429435 -21.963366 -0.060238 -37.712724 72.980461 -39.542916 5.380818 -12.495423 10.023005 0.014862 -0.146863 0.012473 -4.383908 -20.723071 10.971657 54.896832 78.946338 54.288304 5.067190 -15.594334 -17.291803 0.041496 0.083413 0.004389
-205.487942 58.024357 27.396278 172.996783 -50.240564 -3.676146 5.297176 21.881762 3.167371 2.771120 12.540292 1.577103 3.544224 15.660894 2.070931 2.774647 12.544764 1.575556 -0.761592 16.426874 3.339484 -2.446123 -5.265473 6.533364 2.210924 2.782469 -0.037843 3.501321 -11.285813 -9.818782 -59.101831 -60.302084 103.673962 2.175516 8.146995 -28.266401 -9.869419 -0.519791 -0.334729 -0.293148 -10.254515 15.945846 37.158560 -29.892151 -100.994370 15.053178 -3.899308 16.116848 4.430868 -21.972189 -0.064080 -37.727374 72.987228 -39.555194 5.374011 -12.506736 10.025586 0.014959 -0.142861 0.014102 -4.374564 -20.740332 10.961623 54.949454 78.950713 54.358628 5.076987 -15.600717 -17.287994 0.044857 0.084533 0.004902
-205.490714 58.023654 27.388612 172.998176 -50.235340 -3.682647 5.300040 21.889984 3.179274 2.766540 12.541646 1.581676 3.540657 15.653637 2.075023 2.764805 12.562009 1.606140 -0.669939 16.363203 3.378590 -2.396663 -5.311584 6.535172 2.200476 2.780863 -0.058835 3.463806 -11.367196 -9.863126 -59.201997 -60.246520 103.849325 2.199020 8.235212 -28.261437 -9.802964 -0.549196 -0.393996 -0.333968 -10.292429 15.965771 37.137418 -29.870985 -100.989187 15.022104 -3.920239 16.082557 4.444376 -21.976317 -0.066489 -37.743336 72.995925 -39.563694 5.375130 -12.517649 10.033807 0.009002 -0.141665 0.010714 -4.366276 -20.749996 10.956613 55.022267 78.962691 54.451060 5.079550 -15.615524 -17.293818 0.051170 0.080988 0.005518
-205.493716 58.021461 27.382463 173.012457 -50.220097 -3.696898 5.291538 21.882827 3.184527 2.762089 12.559267 1.594474 3.532866 15.644844 2.074062 2.763648 12.576389 1.615222 -0.602528 16.324588 3.414332 -2.318775 -5.373584 6.549541 2.186561 2.762658 -0.048590 3.427727 -11.445118 -9.910562 -59.153775 -60.196205 103.868352 2.229997 8.254121 -28.243592 -9.768874 -0.569425 -0.423059 -0.343765 -10.332458 15.968647 37.170199 -29.878391 -101.002802 15.021430 -3.900400 16.059219 4.441777 -21.991234 -0.065508 -37.759966 73.000014 -39.578525 5.370504 -12.522256 10.038282 0.011507 -0.142097 0.011222 -4.366850 -20.769052 10.952417 55.061421 78.967913 54.502903 5.079223 -15.625891 -17.291156 0.055922 0.082073 0.002621
-205.496081 58.018549 27.377440 173.021897 -50.200399 -3.709347 5.285580 21.871949 3.191062 2.757948 12.579340 1.607938 3.529967 15.643184 2.074853 2.759103 12.592436 1.628519 -0.548672 16.290163 3.432830 -2.227292 -5.439739 6.566541 2.167419 2.731850 -0.033097 3.405843 -11.528019 -9.960495 -59.185961 -60.140121 103.960486 2.253027 8.313963 -28.249187 -9.738913 -0.593117 -0.454532 -0.346176 -10.381051 15.963862 37.231281 -29.895563 -101.025543 15.030770 -3.863358 16.054365 4.442716 -22.010471 -0.061116 -37.783125 73.001765 -39.598515 5.363118 -12.531081 10.039986 0.014682 -0.137429 0.014695 -4.349620 -20.793758 10.945982 55.073834 78.971331 54.541839 5.082216 -15.638549 -17.290689 0.041332 0.090117 0.003906
